<svg width="56.104" height="61.114" viewBox="0 0 56.104 61.114" xmlns="http://www.w3.org/2000/svg">
  <title>SVG icon for {{ meta.title }}</title>  
    <g id="svgGroup" stroke-linecap="round" fill-rule="evenodd" font-size="9pt" stroke="#000" stroke-width="0.25mm" fill="black" style="stroke:#000;stroke-width:0.25mm;fill:black">
	<path d="M 24.902 2.256 L 25.078 1.436 A 1.748 1.748 0 0 1 25.534 0.633 A 2.308 2.308 0 0 1 25.767 0.425 A 2.982 2.982 0 0 1 26.061 0.22 Q 26.391 0.02 26.665 0.002 A 0.819 0.819 0 0 1 26.719 0 Q 27.568 0 27.832 0.996 L 27.656 2.256 Q 37.09 2.52 44.033 7.617 Q 49.951 11.983 53.027 18.472 A 36.131 36.131 0 0 1 55.019 23.592 Q 56.104 27.223 56.104 30.528 Q 56.104 37.969 53.291 44.883 A 33.772 33.772 0 0 1 49.616 51.721 A 22.353 22.353 0 0 1 39.639 59.795 A 17.741 17.741 0 0 1 33.66 61.04 A 20.497 20.497 0 0 1 32.871 61.055 A 6.962 6.962 0 0 1 30.143 60.45 Q 27.606 59.37 24.697 56.367 Q 21.46 53.077 19.912 51.723 A 20.691 20.691 0 0 0 19.658 51.504 A 17.677 17.677 0 0 0 18.149 50.354 A 13.115 13.115 0 0 0 16.67 49.483 A 192.469 192.469 0 0 0 16.436 50.508 Q 16.066 52.156 15.571 54.463 A 34.514 34.514 0 0 1 15.25 55.835 Q 14.763 57.728 14.259 58.538 A 2.958 2.958 0 0 1 14.224 58.594 A 6.377 6.377 0 0 1 12.466 60.381 A 3.675 3.675 0 0 1 11.45 60.855 Q 10.971 61.001 10.393 61.064 A 8.797 8.797 0 0 1 9.434 61.114 Q 6.064 61.114 4.438 59.033 Q 2.812 56.953 2.812 54.361 A 11.958 11.958 0 0 1 2.932 52.62 Q 3.144 51.178 3.735 50.127 A 8.378 8.378 0 0 1 5.034 48.372 A 7.27 7.27 0 0 1 6.05 47.505 A 9.063 9.063 0 0 1 9.038 46.114 A 14.067 14.067 0 0 1 10.477 45.819 Q 11.235 45.707 11.923 45.704 A 8.695 8.695 0 0 1 11.968 45.703 A 10.385 10.385 0 0 1 13.204 45.782 Q 13.834 45.858 14.529 46.006 A 18.496 18.496 0 0 1 15 46.114 Q 18.185 33.934 19.928 26.314 A 233.061 233.061 0 0 0 20.859 22.075 A 3792.542 3792.542 0 0 0 22.595 13.722 A 4428.224 4428.224 0 0 0 24.404 4.922 Q 11.777 5.391 5.771 13.389 A 30.222 30.222 0 0 0 2.695 18.516 A 2.668 2.668 0 0 1 2.338 19.097 A 1.627 1.627 0 0 1 1.025 19.717 A 0.98 0.98 0 0 1 0.54 19.603 Q 0.154 19.387 0.035 18.765 A 2.762 2.762 0 0 1 0 18.516 Q 2.402 13.565 4.512 11.133 A 35.066 35.066 0 0 1 6.192 9.322 Q 7.019 8.494 7.812 7.833 A 18.497 18.497 0 0 1 8.525 7.266 Q 13.851 3.195 22.378 2.413 A 44.219 44.219 0 0 1 24.902 2.256 Z M 22.603 25.166 A 609.37 609.37 0 0 0 24.058 19.291 Q 26.245 10.261 27.187 4.922 A 32.971 32.971 0 0 1 29.25 5.067 A 27.499 27.499 0 0 1 40.532 8.687 Q 46.436 12.158 49.761 17.974 A 24.519 24.519 0 0 1 53.086 30.337 A 33.82 33.82 0 0 1 53.024 32.382 A 36.086 36.086 0 0 1 50.552 43.374 A 34.051 34.051 0 0 1 48.973 46.845 A 27.393 27.393 0 0 1 43.55 54.082 A 18.164 18.164 0 0 1 40.98 56.122 A 12.797 12.797 0 0 1 33.896 58.301 Q 32.165 58.301 30.356 57.319 A 12.603 12.603 0 0 1 28.506 56.074 A 38.38 38.38 0 0 1 27.733 55.412 A 45.057 45.057 0 0 1 26.001 53.804 A 158.757 158.757 0 0 0 25.841 53.648 A 172.995 172.995 0 0 0 23.35 51.27 A 36.26 36.26 0 0 0 21.592 49.721 Q 19.307 47.841 17.285 46.905 Q 19.248 38.438 22.603 25.166 Z M 12.598 55.371 L 14.326 48.633 A 25.067 25.067 0 0 0 13.837 48.556 Q 13.162 48.457 12.832 48.457 A 14.468 14.468 0 0 0 10.16 48.681 Q 5.717 49.521 5.464 53.502 A 7.764 7.764 0 0 0 5.449 53.994 A 5.749 5.749 0 0 0 5.604 55.378 A 3.447 3.447 0 0 0 7.412 57.715 A 3.407 3.407 0 0 0 9.053 58.125 A 3.433 3.433 0 0 0 10.462 57.816 A 4.195 4.195 0 0 0 10.781 57.657 Q 12.158 56.953 12.598 55.371 Z" vector-effect="non-scaling-stroke"/>
	</g>
</svg>
