<svg width="238.008" height="85.548" viewBox="0 0 238.008 85.548" xmlns="http://www.w3.org/2000/svg"><g id="svgGroup" stroke-linecap="round" fill-rule="evenodd" font-size="9pt" stroke="#000" stroke-width="0.25mm" fill="black" style="stroke:#000;stroke-width:0.25mm;fill:black"><path d="M 110.566 54.932 L 111.709 51.035 Q 111.971 50.129 112.309 48.994 A 412.93 412.93 0 0 1 112.632 47.915 Q 113.147 46.203 113.463 45.06 A 68.504 68.504 0 0 0 113.496 44.942 A 216.137 216.137 0 0 1 111.128 49.21 Q 107.806 55.027 105.764 57.527 A 17.435 17.435 0 0 1 105.571 57.759 Q 102.832 60.996 101.338 60.996 A 3.94 3.94 0 0 1 100.611 60.934 Q 100.22 60.861 99.923 60.699 A 1.626 1.626 0 0 1 99.302 60.117 A 3.298 3.298 0 0 1 98.931 59.236 Q 98.824 58.837 98.784 58.366 A 6.975 6.975 0 0 1 98.76 57.774 A 52.028 52.028 0 0 1 98.914 53.899 Q 99.07 51.824 99.382 49.49 A 99.54 99.54 0 0 1 99.697 47.315 Q 97.29 51.953 95.648 54.56 A 30.442 30.442 0 0 1 94.658 56.045 Q 91.084 60.996 88.857 60.996 Q 85.917 60.996 85.452 58.799 A 3.611 3.611 0 0 1 85.43 58.682 A 9.597 9.597 0 0 1 85.358 58.041 Q 85.33 57.683 85.319 57.273 A 19.511 19.511 0 0 1 85.312 56.763 A 20.162 20.162 0 0 1 85.43 54.566 Q 85.547 53.496 85.708 52.574 A 39.449 39.449 0 0 1 85.873 51.687 A 30.906 30.906 0 0 1 86.045 50.874 A 57.052 57.052 0 0 0 86.126 50.508 Q 86.336 49.551 86.836 47.183 A 118.781 118.781 0 0 0 87.374 44.49 Q 87.629 43.125 87.817 41.909 A 1631.472 1631.472 0 0 1 88.206 39.423 A 2191.459 2191.459 0 0 1 88.638 36.68 A 131.449 131.449 0 0 1 89.067 34.123 Q 89.281 32.923 89.498 31.855 A 78.063 78.063 0 0 1 89.561 31.553 A 2.316 2.316 0 0 1 90.248 30.556 A 2.731 2.731 0 0 1 90.264 30.542 Q 90.762 30.117 91.201 30.117 A 1.155 1.155 0 0 1 91.721 30.229 Q 92.166 30.45 92.342 31.106 A 2.449 2.449 0 0 1 92.344 31.114 Q 88.43 50.684 88.002 55.868 A 13.268 13.268 0 0 0 87.949 56.924 A 2.515 2.515 0 0 0 87.982 57.347 Q 88.115 58.125 88.799 58.125 Q 91.055 58.125 94.102 53.321 A 53.381 53.381 0 0 0 96.856 48.367 Q 99.104 43.81 101.191 37.823 A 71.038 71.038 0 0 0 101.868 35.742 Q 102.259 34.467 102.539 33.355 Q 102.947 31.736 103.207 31.098 A 2.418 2.418 0 0 1 103.315 30.865 A 1.161 1.161 0 0 1 103.662 30.482 Q 103.975 30.254 104.498 30.118 A 4.378 4.378 0 0 1 104.502 30.117 Q 105.703 30.117 105.703 31.597 Q 105.703 33.026 104.692 36.299 A 57.471 57.471 0 0 1 104.619 36.533 Q 102.042 48.951 101.569 52.251 A 20.808 20.808 0 0 0 101.514 52.661 Q 101.162 55.518 101.162 56.485 Q 101.162 57.451 101.338 57.788 Q 101.5 58.1 102.088 58.123 A 2.475 2.475 0 0 0 102.187 58.125 Q 104.614 58.125 110.581 46.343 A 186.782 186.782 0 0 0 111.943 43.594 Q 115.225 36.856 116.03 34.439 Q 116.836 32.022 117.29 31.128 A 2.125 2.125 0 0 1 117.574 30.696 A 1.259 1.259 0 0 1 118.564 30.235 A 3.396 3.396 0 0 1 118.918 30.252 Q 119.267 30.288 119.469 30.405 A 0.588 0.588 0 0 1 119.634 30.542 A 0.835 0.835 0 0 1 119.762 30.777 Q 119.85 31.012 119.874 31.377 A 4.5 4.5 0 0 1 119.883 31.67 A 92.45 92.45 0 0 1 119.705 32.275 Q 119.505 32.949 119.235 33.83 A 307.544 307.544 0 0 1 118.975 34.673 A 329.667 329.667 0 0 0 118.363 36.669 A 444.241 444.241 0 0 0 117.7 38.877 A 3723.372 3723.372 0 0 1 116.993 41.25 A 4303.078 4303.078 0 0 1 116.25 43.741 Q 115.488 46.289 114.375 50.142 Q 113.459 53.31 113.039 54.893 A 52.352 52.352 0 0 0 112.881 55.503 A 140.468 140.468 0 0 1 112.791 55.857 Q 112.529 56.883 112.48 56.998 A 0.026 0.026 0 0 1 112.471 57.012 Q 112.445 57.012 112.442 57.367 A 12.244 12.244 0 0 0 112.441 57.481 Q 112.441 58.183 113.226 58.238 A 1.987 1.987 0 0 0 113.364 58.242 A 2.253 2.253 0 0 0 114.666 57.822 A 3.164 3.164 0 0 0 115.063 57.495 Q 115.751 56.834 116.312 56.758 A 1.068 1.068 0 0 1 116.455 56.748 A 1.497 1.497 0 0 1 116.924 56.816 Q 117.598 57.038 117.598 57.993 Q 117.598 58.975 116.542 59.747 A 5.407 5.407 0 0 1 115.898 60.147 A 8.153 8.153 0 0 1 114.318 60.799 A 6.323 6.323 0 0 1 112.559 61.055 A 4.154 4.154 0 0 1 111.486 60.929 Q 110.107 60.559 109.859 59.107 A 4.099 4.099 0 0 1 109.805 58.418 Q 109.805 57.539 110.566 54.932 Z M 24.902 2.256 L 25.078 1.436 A 1.748 1.748 0 0 1 25.534 0.633 A 2.308 2.308 0 0 1 25.767 0.425 A 2.982 2.982 0 0 1 26.061 0.22 Q 26.391 0.02 26.665 0.002 A 0.819 0.819 0 0 1 26.719 0 Q 27.568 0 27.832 0.996 L 27.656 2.256 Q 37.09 2.52 44.033 7.617 Q 49.951 11.983 53.027 18.472 A 36.131 36.131 0 0 1 55.019 23.592 Q 56.104 27.223 56.104 30.528 Q 56.104 37.969 53.291 44.883 A 33.772 33.772 0 0 1 49.616 51.721 A 22.353 22.353 0 0 1 39.639 59.795 A 17.741 17.741 0 0 1 33.66 61.04 A 20.497 20.497 0 0 1 32.871 61.055 A 6.962 6.962 0 0 1 30.143 60.45 Q 27.606 59.37 24.697 56.367 Q 21.46 53.077 19.912 51.723 A 20.691 20.691 0 0 0 19.658 51.504 A 17.677 17.677 0 0 0 18.149 50.354 A 13.115 13.115 0 0 0 16.67 49.483 A 192.469 192.469 0 0 0 16.436 50.508 Q 16.066 52.156 15.571 54.463 A 34.514 34.514 0 0 1 15.25 55.835 Q 14.763 57.728 14.259 58.538 A 2.958 2.958 0 0 1 14.224 58.594 A 6.377 6.377 0 0 1 12.466 60.381 A 3.675 3.675 0 0 1 11.45 60.855 Q 10.971 61.001 10.393 61.064 A 8.797 8.797 0 0 1 9.434 61.114 Q 6.064 61.114 4.438 59.033 Q 2.812 56.953 2.812 54.361 A 11.958 11.958 0 0 1 2.932 52.62 Q 3.144 51.178 3.735 50.127 A 8.378 8.378 0 0 1 5.034 48.372 A 7.27 7.27 0 0 1 6.05 47.505 A 9.063 9.063 0 0 1 9.038 46.114 A 14.067 14.067 0 0 1 10.477 45.819 Q 11.235 45.707 11.923 45.704 A 8.695 8.695 0 0 1 11.968 45.703 A 10.385 10.385 0 0 1 13.204 45.782 Q 13.834 45.858 14.529 46.006 A 18.496 18.496 0 0 1 15 46.114 Q 18.185 33.934 19.928 26.314 A 233.061 233.061 0 0 0 20.859 22.075 A 3792.542 3792.542 0 0 0 22.595 13.722 A 4428.224 4428.224 0 0 0 24.404 4.922 Q 11.777 5.391 5.771 13.389 A 30.222 30.222 0 0 0 2.695 18.516 A 2.668 2.668 0 0 1 2.338 19.097 A 1.627 1.627 0 0 1 1.025 19.717 A 0.98 0.98 0 0 1 0.54 19.603 Q 0.154 19.387 0.035 18.765 A 2.762 2.762 0 0 1 0 18.516 Q 2.402 13.565 4.512 11.133 A 35.066 35.066 0 0 1 6.192 9.322 Q 7.019 8.494 7.812 7.833 A 18.497 18.497 0 0 1 8.525 7.266 Q 13.851 3.195 22.378 2.413 A 44.219 44.219 0 0 1 24.902 2.256 Z M 69.111 61.553 L 72.041 59.326 Q 72.146 58.855 72.309 58.113 A 1531.142 1531.142 0 0 0 72.349 57.935 A 261.431 261.431 0 0 1 72.546 57.045 A 310.042 310.042 0 0 1 72.759 56.104 A 173.436 173.436 0 0 0 73.184 54.185 A 53.645 53.645 0 0 1 73.333 53.51 Q 73.455 52.98 73.564 52.559 Q 72.51 55.811 70.02 58.404 Q 68.515 59.97 67.059 60.59 A 4.792 4.792 0 0 1 65.171 60.996 Q 62.812 60.996 61.377 59.209 A 5.95 5.95 0 0 1 60.347 57.212 Q 60.093 56.391 59.998 55.408 A 12.88 12.88 0 0 1 59.941 54.17 A 27.175 27.175 0 0 1 60.144 51.084 Q 60.525 47.8 61.621 43.07 A 158.415 158.415 0 0 1 62.812 38.291 A 431.676 431.676 0 0 0 63.149 37.021 Q 64.248 32.842 64.248 32.432 L 64.16 31.699 Q 64.105 31.343 64.82 30.794 A 5.578 5.578 0 0 1 64.922 30.718 Q 65.619 30.208 66.125 30.131 A 1.158 1.158 0 0 1 66.299 30.117 Q 67.247 30.117 67.447 30.848 A 1.677 1.677 0 0 1 67.5 31.289 A 4.826 4.826 0 0 1 67.425 31.955 Q 67.091 34.03 65.273 41.397 Q 63.047 50.42 63.047 53.482 Q 63.047 56.543 63.794 57.334 Q 64.541 58.125 65.625 58.125 A 3.384 3.384 0 0 0 67.319 57.63 Q 68.512 56.943 69.764 55.307 A 18.8 18.8 0 0 0 70.488 54.287 Q 72.338 51.502 73.81 47.19 A 57.352 57.352 0 0 0 74.868 43.711 Q 76.376 38.164 77.089 35.386 A 144.763 144.763 0 0 0 77.358 34.322 A 37.835 37.835 0 0 1 77.639 33.254 Q 78.044 31.806 78.382 31.175 A 2.259 2.259 0 0 1 78.516 30.952 A 1.834 1.834 0 0 1 78.913 30.529 A 1.461 1.461 0 0 1 79.819 30.235 Q 80.404 30.235 80.664 30.427 A 0.504 0.504 0 0 1 80.815 30.601 A 1.512 1.512 0 0 1 80.904 30.805 Q 80.961 30.97 80.961 31.118 A 0.722 0.722 0 0 1 80.947 31.26 A 339.968 339.968 0 0 1 79.998 35.657 Q 79.129 39.562 78.003 44.268 Q 76.201 51.797 75.352 56.807 A 49.546 49.546 0 0 0 76.458 55.811 A 37.129 37.129 0 0 0 77.432 54.873 Q 78.127 54.178 78.702 53.654 A 23.216 23.216 0 0 1 79.043 53.35 A 3.286 3.286 0 0 1 79.475 53.026 Q 79.718 52.876 79.954 52.803 A 1.473 1.473 0 0 1 80.391 52.735 Q 81.204 52.735 81.372 53.38 A 1.511 1.511 0 0 1 81.416 53.76 Q 81.416 54.375 80.947 54.961 A 88.781 88.781 0 0 1 78.902 56.73 Q 77.051 58.286 74.707 60.117 A 262.747 262.747 0 0 1 73.436 66.463 Q 71.507 75.472 69.805 79.459 A 16.414 16.414 0 0 1 69.287 80.567 A 10.097 10.097 0 0 1 65.391 84.756 Q 64.043 85.547 62.344 85.547 A 6.971 6.971 0 0 1 60.28 85.258 A 5.293 5.293 0 0 1 57.539 83.306 A 9.979 9.979 0 0 1 56.554 81.708 Q 55.869 80.296 55.869 78.926 Q 55.869 75.235 57.803 72.158 Q 59.736 69.082 63.047 66.27 A 50.314 50.314 0 0 1 64.085 65.415 Q 65.881 63.97 69.111 61.553 Z M 219.551 46.201 L 219.727 47.578 A 12.599 12.599 0 0 1 218.471 52.969 A 18.125 18.125 0 0 1 216.431 56.28 Q 213.135 60.586 209.033 60.586 A 4.896 4.896 0 0 1 207.059 60.218 Q 204.958 59.299 204.659 56.089 A 12.184 12.184 0 0 1 204.609 54.961 Q 204.609 47.989 207.363 40.401 A 161.124 161.124 0 0 0 207.861 38.983 Q 208.564 36.951 209.004 35.479 A 19.799 19.799 0 0 0 209.708 31.932 A 22.303 22.303 0 0 0 209.766 31.319 A 2.091 2.091 0 0 1 210.288 30.449 A 2.602 2.602 0 0 1 210.454 30.293 Q 210.89 29.92 211.336 29.864 A 1.266 1.266 0 0 1 211.494 29.854 A 0.877 0.877 0 0 1 212.242 30.259 Q 212.411 30.499 212.52 30.879 Q 212.256 33.721 211.421 36.533 A 197.089 197.089 0 0 1 209.648 42.188 A 69.96 69.96 0 0 0 208.425 46.438 Q 207.423 50.425 207.317 53.326 A 18.37 18.37 0 0 0 207.305 53.994 Q 207.305 56.426 208.301 57.481 A 1.112 1.112 0 0 0 208.662 57.714 Q 209.007 57.859 209.546 57.885 A 5.119 5.119 0 0 0 209.795 57.891 A 3.03 3.03 0 0 0 210.689 57.746 Q 211.079 57.625 211.501 57.405 A 7.576 7.576 0 0 0 212.271 56.939 A 9.174 9.174 0 0 0 214.459 54.813 A 10.565 10.565 0 0 0 214.688 54.492 A 12.505 12.505 0 0 0 216.61 50.41 A 11.539 11.539 0 0 0 216.973 47.52 A 7.119 7.119 0 0 0 216.88 46.352 A 6.102 6.102 0 0 0 216.768 45.821 Q 212.637 44.971 212.637 43.067 Q 212.637 41.953 213.735 41.192 Q 214.468 40.684 215.116 40.514 A 2.475 2.475 0 0 1 215.742 40.43 Q 217.588 40.43 218.818 43.477 Q 219.873 43.741 221.279 43.741 A 12.532 12.532 0 0 0 225.701 42.974 A 11.651 11.651 0 0 0 227.798 41.939 A 14.241 14.241 0 0 0 232.5 37.119 A 16.303 16.303 0 0 0 232.719 36.458 Q 232.815 36.147 232.914 35.793 A 35.68 35.68 0 0 0 233.115 35.039 A 19.822 19.822 0 0 1 233.614 33.387 Q 234.568 30.7 235.874 30.262 A 1.631 1.631 0 0 1 236.396 30.176 A 1.098 1.098 0 0 1 236.908 30.288 Q 237.364 30.524 237.457 31.262 A 3.288 3.288 0 0 1 237.48 31.67 A 33.531 33.531 0 0 1 235.987 35.81 A 27.232 27.232 0 0 1 234.727 38.321 Q 231.591 47.343 231.017 52.964 A 23.207 23.207 0 0 0 230.889 55.313 Q 230.889 58.364 231.65 58.526 A 0.421 0.421 0 0 0 231.738 58.535 A 2.366 2.366 0 0 0 233.262 57.993 A 14.751 14.751 0 0 0 234.565 56.807 A 36.155 36.155 0 0 1 235.336 56.041 A 30.108 30.108 0 0 1 235.781 55.62 Q 236.148 55.281 236.492 55.154 A 1.158 1.158 0 0 1 236.895 55.078 Q 238.008 55.078 238.008 56.074 Q 238.008 56.69 237.539 57.276 A 35.651 35.651 0 0 0 236.534 58.211 A 29.431 29.431 0 0 0 235.986 58.755 Q 235.283 59.473 234.185 60.366 Q 233.188 61.177 231.564 61.252 A 7.319 7.319 0 0 1 231.226 61.26 Q 229.365 61.26 228.706 60.044 Q 228.165 59.047 228.068 56.955 A 20.921 20.921 0 0 1 228.047 55.987 A 25.835 25.835 0 0 1 228.306 52.515 Q 228.8 48.892 230.24 44.105 A 90.329 90.329 0 0 1 230.449 43.418 Q 226.787 46.319 222.07 46.319 Q 220.898 46.319 219.551 46.201 Z M 202.09 53.496 A 1.419 1.419 0 0 0 202.044 53.121 Q 201.874 52.5 201.064 52.5 Q 200.449 52.5 199.702 53.101 Q 199.142 53.551 198.384 54.224 A 67.472 67.472 0 0 0 197.856 54.698 A 25.462 25.462 0 0 1 197.171 55.297 A 21.488 21.488 0 0 1 195.674 56.455 Q 198.864 41.53 200.564 35.812 A 32.608 32.608 0 0 1 201.27 33.662 A 5.424 5.424 0 0 0 201.621 31.743 A 1.468 1.468 0 0 0 201.58 31.381 Q 201.467 30.937 201.04 30.812 A 1.368 1.368 0 0 0 200.654 30.762 A 2.054 2.054 0 0 0 200.453 30.772 A 1.673 1.673 0 0 0 199.863 30.938 A 6.692 6.692 0 0 0 198.426 30.314 A 7.665 7.665 0 0 0 196.201 30 A 7.654 7.654 0 0 0 193.885 30.357 Q 192.336 30.846 190.891 32.004 A 14.555 14.555 0 0 0 188.76 34.146 A 28.128 28.128 0 0 0 186.24 37.775 A 33.572 33.572 0 0 0 183.428 44.019 A 39.659 39.659 0 0 0 182.176 48.573 A 30.722 30.722 0 0 0 181.494 54.873 A 10.917 10.917 0 0 0 181.501 55.249 Q 181.535 56.248 181.755 57.096 A 5.77 5.77 0 0 0 182.856 59.326 A 5.459 5.459 0 0 0 183.124 59.631 A 4.204 4.204 0 0 0 186.299 60.996 A 3.142 3.142 0 0 0 186.706 60.969 Q 187.161 60.91 187.642 60.72 A 5.815 5.815 0 0 0 188.496 60.293 A 7.883 7.883 0 0 0 189.496 59.56 Q 191.504 57.84 193.082 54.38 A 33.17 33.17 0 0 0 194.414 50.918 Q 193.828 53.408 193.389 55.254 A 307.805 307.805 0 0 0 193.128 56.356 Q 193.005 56.882 192.897 57.355 A 158.656 158.656 0 0 0 192.656 58.418 Q 189.814 60.791 187.017 63.12 A 62.835 62.835 0 0 0 185.322 64.582 A 53.573 53.573 0 0 0 181.978 67.837 A 28.038 28.038 0 0 0 180.537 69.494 A 22.967 22.967 0 0 0 178.345 72.744 Q 176.953 75.264 176.953 78.252 A 8.74 8.74 0 0 0 176.97 78.803 A 6.572 6.572 0 0 0 178.901 83.189 A 6.547 6.547 0 0 0 181.002 84.619 A 6.905 6.905 0 0 0 183.706 85.137 A 6.29 6.29 0 0 0 186.253 84.628 A 6.386 6.386 0 0 0 188.481 82.969 A 13.653 13.653 0 0 0 189.793 81.222 A 15.702 15.702 0 0 0 191.411 77.769 A 48.988 48.988 0 0 0 191.896 76.228 A 55.991 55.991 0 0 0 193.11 71.309 A 299.59 299.59 0 0 0 193.751 68.028 A 224.698 224.698 0 0 0 194.297 65.039 A 3242.594 3242.594 0 0 1 195.293 59.385 A 177.867 177.867 0 0 0 197.597 57.723 A 213.751 213.751 0 0 0 201.621 54.698 Q 201.951 54.43 202.049 53.945 A 2.27 2.27 0 0 0 202.09 53.496 Z M 146.865 36.475 L 146.689 37.617 A 36.191 36.191 0 0 1 149.316 34.538 Q 153.522 30.176 157.178 30.176 A 2.557 2.557 0 0 1 159.365 31.353 Q 159.669 31.784 159.902 32.373 A 7.115 7.115 0 0 1 160.049 32.783 Q 160.605 34.512 160.605 36.621 Q 160.605 39.58 159.662 43.482 A 54.24 54.24 0 0 1 158.818 46.553 A 42.997 42.997 0 0 1 157.07 51.315 Q 156.001 53.745 154.707 55.73 A 25.318 25.318 0 0 1 154.277 56.367 A 17.701 17.701 0 0 1 152.618 58.444 Q 150.251 60.956 147.737 61.104 A 5.362 5.362 0 0 1 147.422 61.114 A 2.647 2.647 0 0 1 145.704 60.457 Q 144.884 59.78 144.199 58.404 A 12.646 12.646 0 0 1 143.057 54.764 A 16.874 16.874 0 0 1 142.852 52.075 Q 142.852 48.457 143.086 46.201 A 1.365 1.365 0 0 1 142.694 46.096 Q 142.275 45.905 142.196 45.417 A 1.515 1.515 0 0 1 142.178 45.176 A 1.98 1.98 0 0 1 142.228 44.741 A 2.469 2.469 0 0 1 142.295 44.502 L 143.496 42.422 Q 144.608 34.272 148.037 20.815 A 439.831 439.831 0 0 1 148.799 17.871 A 64.118 64.118 0 0 1 150.379 12.76 Q 152.597 6.587 155.449 3.692 Q 156.183 2.924 156.876 2.603 A 2.314 2.314 0 0 1 157.852 2.373 Q 161.632 2.373 161.953 6.618 A 10.94 10.94 0 0 1 161.982 7.442 Q 161.982 11.941 159.142 17.368 A 44.278 44.278 0 0 1 156.416 21.856 Q 155.227 23.605 153.309 26.36 A 1079.087 1079.087 0 0 1 152.065 28.14 A 58.48 58.48 0 0 0 149.856 31.53 Q 148.826 33.243 148.056 34.837 A 32.92 32.92 0 0 0 147.715 35.567 A 1.755 1.755 0 0 1 146.865 36.475 Z M 22.603 25.166 A 609.37 609.37 0 0 0 24.058 19.291 Q 26.245 10.261 27.187 4.922 A 32.971 32.971 0 0 1 29.25 5.067 A 27.499 27.499 0 0 1 40.532 8.687 Q 46.436 12.158 49.761 17.974 A 24.519 24.519 0 0 1 53.086 30.337 A 33.82 33.82 0 0 1 53.024 32.382 A 36.086 36.086 0 0 1 50.552 43.374 A 34.051 34.051 0 0 1 48.973 46.845 A 27.393 27.393 0 0 1 43.55 54.082 A 18.164 18.164 0 0 1 40.98 56.122 A 12.797 12.797 0 0 1 33.896 58.301 Q 32.165 58.301 30.356 57.319 A 12.603 12.603 0 0 1 28.506 56.074 A 38.38 38.38 0 0 1 27.733 55.412 A 45.057 45.057 0 0 1 26.001 53.804 A 158.757 158.757 0 0 0 25.841 53.648 A 172.995 172.995 0 0 0 23.35 51.27 A 36.26 36.26 0 0 0 21.592 49.721 Q 19.307 47.841 17.285 46.905 Q 19.248 38.438 22.603 25.166 Z M 125.977 49.014 L 125.859 53.321 A 12.463 12.463 0 0 0 125.966 55.033 Q 126.237 56.973 127.192 57.782 A 2.561 2.561 0 0 0 128.906 58.36 Q 130.547 58.36 132.349 57.407 A 1112.612 1112.612 0 0 0 133.186 56.964 Q 134.226 56.414 134.81 56.101 A 136.894 136.894 0 0 0 134.941 56.031 A 6.217 6.217 0 0 1 135.315 55.845 Q 135.691 55.674 135.966 55.625 A 1.181 1.181 0 0 1 136.172 55.606 Q 136.99 55.606 137.155 56.295 A 1.694 1.694 0 0 1 137.197 56.69 A 1.395 1.395 0 0 1 136.927 57.465 Q 136.285 58.419 134.121 59.532 A 20.553 20.553 0 0 1 132.385 60.331 Q 130.607 61.045 129.252 61.108 A 5.572 5.572 0 0 1 128.994 61.114 Q 127.075 61.114 126.054 60.523 A 2.781 2.781 0 0 1 125.918 60.44 A 4.853 4.853 0 0 1 124.548 59.065 A 5.952 5.952 0 0 1 124.248 58.565 Q 123.006 56.253 122.989 53.002 A 17.302 17.302 0 0 1 122.988 52.91 Q 122.988 47.051 124.746 41.866 A 30.357 30.357 0 0 1 126.652 37.394 A 22.417 22.417 0 0 1 129.434 33.267 A 12.435 12.435 0 0 1 131.31 31.467 Q 132.583 30.497 133.935 30.11 A 6.613 6.613 0 0 1 135.762 29.854 A 3.492 3.492 0 0 1 137.202 30.143 Q 137.949 30.476 138.497 31.195 A 4.329 4.329 0 0 1 138.618 31.363 A 5.882 5.882 0 0 1 139.615 34.111 A 7.489 7.489 0 0 1 139.658 34.922 A 12.19 12.19 0 0 1 139.253 38.134 A 9.622 9.622 0 0 1 137.651 41.426 Q 135.645 44.092 132.715 45.791 A 45.252 45.252 0 0 1 129.354 47.547 A 60.322 60.322 0 0 1 125.977 49.014 Z M 165.234 49.014 L 165.117 53.321 A 12.463 12.463 0 0 0 165.224 55.033 Q 165.495 56.973 166.45 57.782 A 2.561 2.561 0 0 0 168.164 58.36 Q 169.805 58.36 171.606 57.407 A 1112.612 1112.612 0 0 0 172.444 56.964 Q 173.483 56.414 174.068 56.101 A 136.894 136.894 0 0 0 174.199 56.031 A 6.217 6.217 0 0 1 174.573 55.845 Q 174.949 55.674 175.224 55.625 A 1.181 1.181 0 0 1 175.43 55.606 Q 176.248 55.606 176.413 56.295 A 1.694 1.694 0 0 1 176.455 56.69 A 1.395 1.395 0 0 1 176.184 57.465 Q 175.543 58.419 173.379 59.532 A 20.553 20.553 0 0 1 171.643 60.331 Q 169.865 61.045 168.509 61.108 A 5.572 5.572 0 0 1 168.252 61.114 Q 166.333 61.114 165.311 60.523 A 2.781 2.781 0 0 1 165.176 60.44 A 4.853 4.853 0 0 1 163.806 59.065 A 5.952 5.952 0 0 1 163.506 58.565 Q 162.263 56.253 162.246 53.002 A 17.302 17.302 0 0 1 162.246 52.91 Q 162.246 47.051 164.004 41.866 A 30.357 30.357 0 0 1 165.909 37.394 A 22.417 22.417 0 0 1 168.691 33.267 A 12.435 12.435 0 0 1 170.568 31.467 Q 171.84 30.497 173.193 30.11 A 6.613 6.613 0 0 1 175.02 29.854 A 3.492 3.492 0 0 1 176.46 30.143 Q 177.207 30.476 177.755 31.195 A 4.329 4.329 0 0 1 177.876 31.363 A 5.882 5.882 0 0 1 178.873 34.111 A 7.489 7.489 0 0 1 178.916 34.922 A 12.19 12.19 0 0 1 178.511 38.134 A 9.622 9.622 0 0 1 176.909 41.426 Q 174.902 44.092 171.973 45.791 A 45.252 45.252 0 0 1 168.612 47.547 A 60.322 60.322 0 0 1 165.234 49.014 Z M 186.079 44.473 A 34.457 34.457 0 0 0 184.816 48.756 Q 184.312 51.028 184.233 53.101 A 20.078 20.078 0 0 0 184.219 53.863 A 12.22 12.22 0 0 0 184.295 55.298 Q 184.467 56.738 185.022 57.445 A 1.719 1.719 0 0 0 186.445 58.125 Q 188.32 58.125 190.781 54.551 A 29.76 29.76 0 0 0 194.375 47.375 A 33.64 33.64 0 0 0 194.648 46.553 A 225.347 225.347 0 0 0 195.786 42.87 Q 196.458 40.623 196.978 38.687 Q 197.803 35.607 198.359 33.618 A 229.065 229.065 0 0 1 198.486 33.164 A 3.333 3.333 0 0 0 196.673 32.401 A 4.399 4.399 0 0 0 196.172 32.373 A 4.715 4.715 0 0 0 193.944 32.971 Q 192.353 33.817 190.723 35.86 A 26.241 26.241 0 0 0 188.026 40.027 A 35.674 35.674 0 0 0 186.079 44.473 Z M 146.816 57.511 A 1.454 1.454 0 0 0 148.008 58.184 A 3.178 3.178 0 0 0 149.742 57.627 Q 150.834 56.924 151.915 55.331 A 17.127 17.127 0 0 0 152.534 54.346 Q 154.705 50.628 156.162 45.522 A 53.335 53.335 0 0 0 156.255 45.191 A 72.837 72.837 0 0 0 156.902 42.708 Q 157.478 40.312 157.656 38.674 A 12.256 12.256 0 0 0 157.734 37.368 A 34.579 34.579 0 0 0 157.724 36.493 Q 157.679 34.737 157.441 34.19 A 0.966 0.966 0 0 0 156.938 33.695 Q 156.552 33.516 155.918 33.516 A 4.191 4.191 0 0 0 154.211 33.914 Q 152.868 34.513 151.346 36.011 A 19.97 19.97 0 0 0 150.645 36.739 Q 148.948 38.587 146.639 42.185 A 93.838 93.838 0 0 0 145.898 43.36 Q 145.547 46.787 145.547 49.717 Q 145.547 55.797 146.816 57.511 Z M 154.834 9.141 A 50.568 50.568 0 0 0 152.63 14.248 Q 150.593 19.699 148.73 27.501 A 192.537 192.537 0 0 0 148.125 30.117 A 70.797 70.797 0 0 1 149.419 28.009 A 84.564 84.564 0 0 1 150.278 26.69 Q 151.465 24.903 153.574 21.68 A 64.113 64.113 0 0 0 155.971 17.674 Q 158.099 13.774 158.758 10.912 A 10.574 10.574 0 0 0 159.053 8.555 A 18.96 18.96 0 0 0 159.037 7.761 Q 159.001 6.889 158.877 6.343 Q 158.701 5.567 157.969 5.567 A 1.415 1.415 0 0 0 157.176 5.849 Q 156.284 6.459 155.231 8.382 A 22.876 22.876 0 0 0 154.834 9.141 Z M 185.357 67.868 A 27.24 27.24 0 0 0 184.395 68.936 A 36.367 36.367 0 0 0 182.474 71.412 Q 180.702 73.93 180.142 75.895 A 6.211 6.211 0 0 0 179.883 77.593 A 12.018 12.018 0 0 0 179.95 78.918 Q 180.107 80.323 180.628 81.095 A 2.126 2.126 0 0 0 181.289 81.739 A 2.078 2.078 0 0 0 181.786 81.955 Q 182.332 82.119 183.149 82.119 A 5.073 5.073 0 0 0 184.614 81.913 A 4.504 4.504 0 0 0 185.405 81.592 A 3.734 3.734 0 0 0 186.197 81.025 Q 186.784 80.487 187.339 79.615 A 12.42 12.42 0 0 0 187.97 78.486 Q 188.269 77.885 188.566 77.163 A 30.775 30.775 0 0 0 189.155 75.601 A 42.87 42.87 0 0 0 190.62 70.327 A 480.579 480.579 0 0 0 190.874 69.114 Q 191.152 67.778 191.302 67.009 A 48.893 48.893 0 0 0 191.382 66.592 A 171.331 171.331 0 0 0 191.561 65.611 A 128.843 128.843 0 0 0 191.719 64.717 A 50.906 50.906 0 0 0 191.885 63.695 A 41.594 41.594 0 0 0 191.968 63.12 A 51.189 51.189 0 0 1 192.18 61.714 A 46.849 46.849 0 0 1 192.188 61.67 Q 187.736 65.356 185.357 67.868 Z M 69.961 68.936 L 71.338 62.813 L 70.312 63.721 Q 68.232 65.479 66.182 67.149 A 32.829 32.829 0 0 0 63.003 70.045 Q 58.916 74.341 58.916 78.34 A 6.007 6.007 0 0 0 59.12 79.949 A 4.296 4.296 0 0 0 60.527 82.149 A 2.343 2.343 0 0 0 61.371 82.56 Q 61.707 82.651 62.103 82.671 A 4.537 4.537 0 0 0 62.329 82.676 A 3.208 3.208 0 0 0 64.229 82.05 A 4.063 4.063 0 0 0 64.409 81.914 A 7.236 7.236 0 0 0 65.525 80.791 A 9.209 9.209 0 0 0 66.123 79.951 Q 66.885 78.75 67.485 77.227 Q 68.086 75.703 68.555 74.18 A 52.273 52.273 0 0 0 69.137 72.148 A 44.463 44.463 0 0 0 69.36 71.265 Q 69.697 69.873 69.961 68.936 Z M 136.904 35.039 A 4.09 4.09 0 0 0 136.82 34.169 Q 136.545 32.913 135.373 32.728 A 2.769 2.769 0 0 0 134.941 32.696 A 2.579 2.579 0 0 0 133.767 33.012 Q 132.86 33.477 131.82 34.626 A 17.332 17.332 0 0 0 130.811 35.86 A 20.347 20.347 0 0 0 128.899 38.999 Q 128.117 40.569 127.458 42.443 A 39.468 39.468 0 0 0 126.885 44.209 A 21.704 21.704 0 0 0 126.714 44.801 Q 126.552 45.401 126.484 45.819 A 4.239 4.239 0 0 0 126.445 46.114 Q 127.617 45.469 128.848 44.883 A 46.199 46.199 0 0 0 131.25 43.653 A 15.461 15.461 0 0 0 133.376 42.247 Q 134.593 41.28 135.425 40.152 A 7.331 7.331 0 0 0 136.66 37.381 Q 136.904 36.301 136.904 35.039 Z M 176.162 35.039 A 4.09 4.09 0 0 0 176.078 34.169 Q 175.803 32.913 174.631 32.728 A 2.769 2.769 0 0 0 174.199 32.696 A 2.579 2.579 0 0 0 173.025 33.012 Q 172.118 33.477 171.078 34.626 A 17.332 17.332 0 0 0 170.068 35.86 A 20.347 20.347 0 0 0 168.157 38.999 Q 167.375 40.569 166.716 42.443 A 39.468 39.468 0 0 0 166.143 44.209 A 21.704 21.704 0 0 0 165.972 44.801 Q 165.809 45.401 165.741 45.819 A 4.239 4.239 0 0 0 165.703 46.114 Q 166.875 45.469 168.105 44.883 A 46.199 46.199 0 0 0 170.508 43.653 A 15.461 15.461 0 0 0 172.633 42.247 Q 173.85 41.28 174.683 40.152 A 7.331 7.331 0 0 0 175.918 37.381 Q 176.162 36.301 176.162 35.039 Z M 12.598 55.371 L 14.326 48.633 A 25.067 25.067 0 0 0 13.837 48.556 Q 13.162 48.457 12.832 48.457 A 14.468 14.468 0 0 0 10.16 48.681 Q 5.717 49.521 5.464 53.502 A 7.764 7.764 0 0 0 5.449 53.994 A 5.749 5.749 0 0 0 5.604 55.378 A 3.447 3.447 0 0 0 7.412 57.715 A 3.407 3.407 0 0 0 9.053 58.125 A 3.433 3.433 0 0 0 10.462 57.816 A 4.195 4.195 0 0 0 10.781 57.657 Q 12.158 56.953 12.598 55.371 Z" vector-effect="non-scaling-stroke"/></g></svg>