<svg width="164.672" height="66.54" viewBox="0 0 164.672 66.54" xmlns="http://www.w3.org/2000/svg"><g id="svgGroup" stroke-linecap="round" fill-rule="evenodd" font-size="9pt" stroke="#000" stroke-width="0.25mm" fill="black" style="stroke:#000;stroke-width:0.25mm;fill:black"><path d="M 62.719 42.048 L 63.633 38.931 A 178.411 178.411 0 0 1 63.88 38.085 Q 64.1 37.335 64.371 36.434 A 170.591 170.591 0 0 0 64.577 35.745 Q 64.85 34.824 65.037 34.15 A 54.911 54.911 0 0 0 65.063 34.056 Q 60.914 41.72 58.723 44.309 A 19.546 19.546 0 0 1 57.843 45.287 Q 56.515 46.656 55.634 46.863 A 1.308 1.308 0 0 1 55.336 46.899 A 3.152 3.152 0 0 1 54.755 46.85 Q 54.026 46.712 53.707 46.196 Q 53.274 45.493 53.274 44.321 A 41.623 41.623 0 0 1 53.398 41.222 Q 53.578 38.807 54.024 35.954 Q 51.469 40.876 49.993 42.938 A 25.746 25.746 0 0 1 48.875 44.384 Q 46.771 46.899 45.352 46.899 Q 43 46.899 42.628 45.141 A 2.888 2.888 0 0 1 42.61 45.048 A 7.678 7.678 0 0 1 42.553 44.535 Q 42.516 44.077 42.516 43.513 A 16.13 16.13 0 0 1 42.61 41.755 A 28.097 28.097 0 0 1 42.712 40.929 A 22.836 22.836 0 0 1 42.832 40.161 A 31.559 31.559 0 0 1 42.964 39.452 A 24.725 24.725 0 0 1 43.102 38.802 Q 43.238 38.199 43.705 35.988 A 1199.285 1199.285 0 0 0 43.735 35.848 A 95.025 95.025 0 0 0 44.165 33.694 Q 44.356 32.671 44.501 31.752 A 57.469 57.469 0 0 0 44.52 31.63 A 1305.33 1305.33 0 0 1 44.83 29.64 A 1753.523 1753.523 0 0 1 45.176 27.446 A 105.159 105.159 0 0 1 45.519 25.401 Q 45.691 24.441 45.865 23.586 A 62.485 62.485 0 0 1 45.914 23.345 A 1.853 1.853 0 0 1 46.465 22.547 A 2.191 2.191 0 0 1 46.477 22.536 Q 46.736 22.315 46.975 22.238 A 0.816 0.816 0 0 1 47.227 22.196 A 0.924 0.924 0 0 1 47.643 22.286 Q 48.001 22.463 48.141 22.993 Q 45.01 38.649 44.667 42.797 A 10.614 10.614 0 0 0 44.625 43.641 Q 44.625 44.581 45.275 44.602 A 0.93 0.93 0 0 0 45.305 44.602 Q 47.047 44.602 49.379 41.021 A 26.083 26.083 0 0 0 49.547 40.759 Q 52.547 36.024 55.219 28.36 Q 55.899 26.368 56.297 24.786 A 37.212 37.212 0 0 1 56.44 24.234 Q 56.737 23.127 56.918 22.794 A 0.928 0.928 0 0 1 57.195 22.488 Q 57.446 22.305 57.864 22.197 A 3.795 3.795 0 0 1 57.868 22.196 Q 58.745 22.196 58.821 23.183 A 2.557 2.557 0 0 1 58.828 23.38 Q 58.828 24.523 58.02 27.141 A 45.962 45.962 0 0 1 57.961 27.329 A 987.125 987.125 0 0 0 57.203 31.017 Q 55.705 38.375 55.477 40.231 Q 55.234 42.203 55.201 43.049 A 6.19 6.19 0 0 0 55.196 43.29 A 6.699 6.699 0 0 0 55.203 43.625 Q 55.228 44.109 55.329 44.318 A 0.543 0.543 0 0 0 55.336 44.333 Q 55.466 44.582 55.936 44.601 A 1.98 1.98 0 0 0 56.016 44.602 A 1.774 1.774 0 0 0 57.081 44.085 Q 59.076 42.394 62.731 35.177 A 149.427 149.427 0 0 0 63.821 32.977 Q 66.446 27.587 67.09 25.653 A 55.336 55.336 0 0 1 67.39 24.775 Q 67.804 23.6 68.073 23.055 A 4.607 4.607 0 0 1 68.098 23.005 A 1.7 1.7 0 0 1 68.326 22.659 A 1.008 1.008 0 0 1 69.118 22.29 A 2.717 2.717 0 0 1 69.4 22.303 Q 69.82 22.348 69.973 22.536 A 0.668 0.668 0 0 1 70.076 22.724 Q 70.146 22.911 70.165 23.204 A 3.6 3.6 0 0 1 70.172 23.438 Q 69.914 24.329 69.446 25.841 Q 68.977 27.352 68.426 29.204 A 2978.253 2978.253 0 0 1 67.861 31.102 A 3443.608 3443.608 0 0 1 67.266 33.095 Q 66.687 35.032 65.854 37.911 A 1035.813 1035.813 0 0 0 65.766 38.216 Q 65.034 40.75 64.697 42.017 A 41.885 41.885 0 0 0 64.571 42.505 A 112.432 112.432 0 0 1 64.499 42.788 Q 64.289 43.609 64.25 43.7 A 0.021 0.021 0 0 1 64.243 43.712 Q 64.222 43.712 64.219 43.995 A 9.794 9.794 0 0 0 64.219 44.087 A 0.712 0.712 0 0 0 64.264 44.35 Q 64.401 44.696 64.957 44.696 A 1.802 1.802 0 0 0 65.999 44.36 A 2.531 2.531 0 0 0 66.317 44.098 A 3.425 3.425 0 0 1 66.638 43.823 Q 67.069 43.501 67.43 43.501 A 1.198 1.198 0 0 1 67.806 43.555 Q 68.344 43.732 68.344 44.497 A 1.48 1.48 0 0 1 67.983 45.452 Q 67.643 45.868 66.985 46.22 A 6.522 6.522 0 0 1 65.721 46.741 A 5.058 5.058 0 0 1 64.313 46.946 A 3.323 3.323 0 0 1 63.454 46.845 Q 62.11 46.485 62.11 44.837 A 2.916 2.916 0 0 1 62.139 44.463 Q 62.225 43.81 62.569 42.573 A 41.652 41.652 0 0 1 62.719 42.048 Z M 29.555 47.345 L 31.899 45.563 A 369.079 369.079 0 0 0 31.949 45.336 Q 32.019 45.02 32.113 44.593 A 1250.298 1250.298 0 0 0 32.145 44.45 A 209.203 209.203 0 0 1 32.303 43.738 A 247.96 247.96 0 0 1 32.473 42.985 Q 32.649 42.212 32.813 41.45 Q 32.926 40.926 33.027 40.508 A 22.167 22.167 0 0 1 33.118 40.149 A 12.065 12.065 0 0 1 30.282 44.825 A 9.643 9.643 0 0 1 29.169 45.828 Q 27.759 46.899 26.403 46.899 A 4.019 4.019 0 0 1 24.869 46.616 A 3.718 3.718 0 0 1 23.368 45.47 A 4.76 4.76 0 0 1 22.543 43.872 Q 22.341 43.215 22.265 42.428 A 10.304 10.304 0 0 1 22.219 41.438 Q 22.219 38.355 23.562 32.558 A 126.732 126.732 0 0 1 24.516 28.735 Q 25.664 24.423 25.664 24.048 L 25.594 23.462 Q 25.55 23.177 26.122 22.738 A 4.462 4.462 0 0 1 26.203 22.677 A 4.001 4.001 0 0 1 26.537 22.455 Q 26.888 22.249 27.166 22.207 A 0.926 0.926 0 0 1 27.305 22.196 A 1.424 1.424 0 0 1 27.679 22.241 Q 28.266 22.401 28.266 23.134 Q 28.266 24.001 26.485 31.22 A 149.215 149.215 0 0 0 25.791 34.15 Q 24.895 38.126 24.737 40.125 A 9.812 9.812 0 0 0 24.703 40.888 Q 24.703 43.337 25.301 43.97 A 1.932 1.932 0 0 0 26.699 44.601 A 2.335 2.335 0 0 0 26.766 44.602 Q 28.353 44.602 30.077 42.348 A 15.04 15.04 0 0 0 30.657 41.532 A 19.713 19.713 0 0 0 32.098 38.918 Q 33.242 36.451 34.161 33.071 A 1042.366 1042.366 0 0 0 34.825 30.616 Q 35.537 27.969 35.937 26.411 A 115.811 115.811 0 0 0 36.153 25.559 A 30.268 30.268 0 0 1 36.377 24.705 Q 36.702 23.547 36.971 23.042 A 1.807 1.807 0 0 1 37.078 22.864 A 1.467 1.467 0 0 1 37.397 22.526 A 1.169 1.169 0 0 1 38.121 22.29 Q 38.766 22.29 38.918 22.583 A 1.209 1.209 0 0 1 38.989 22.746 Q 39.057 22.943 39.024 23.11 Q 38.395 26.123 37.518 29.912 A 512.312 512.312 0 0 1 36.668 33.516 A 247.253 247.253 0 0 0 35.995 36.402 Q 35.119 40.267 34.617 43.143 A 82.959 82.959 0 0 0 34.547 43.548 A 39.637 39.637 0 0 0 35.432 42.751 A 29.704 29.704 0 0 0 36.211 42.001 A 36.231 36.231 0 0 1 36.733 41.489 Q 36.993 41.239 37.228 41.026 A 18.573 18.573 0 0 1 37.5 40.782 A 2.629 2.629 0 0 1 37.846 40.523 Q 38.223 40.29 38.578 40.29 A 1.181 1.181 0 0 1 38.903 40.331 Q 39.267 40.435 39.364 40.806 A 1.209 1.209 0 0 1 39.399 41.11 Q 39.399 41.602 39.024 42.071 A 71.025 71.025 0 0 1 37.388 43.486 Q 36.647 44.109 35.808 44.786 A 141.604 141.604 0 0 1 34.032 46.196 Q 31.911 57.45 30.11 61.669 A 13.131 13.131 0 0 1 29.696 62.556 A 8.078 8.078 0 0 1 26.578 65.907 A 4.634 4.634 0 0 1 24.487 66.529 A 5.619 5.619 0 0 1 24.141 66.54 Q 21.633 66.54 20.297 64.747 A 7.983 7.983 0 0 1 19.51 63.469 Q 18.961 62.339 18.961 61.243 Q 18.961 58.29 20.508 55.829 A 18.45 18.45 0 0 1 22.597 53.127 A 24.259 24.259 0 0 1 24.703 51.118 A 40.25 40.25 0 0 1 25.534 50.434 Q 26.819 49.4 29.023 47.744 A 301.981 301.981 0 0 1 29.555 47.345 Z M 149.907 35.063 L 150.047 36.165 A 10.079 10.079 0 0 1 149.043 40.478 A 14.5 14.5 0 0 1 147.411 43.126 A 11.415 11.415 0 0 1 145.788 44.868 Q 143.8 46.571 141.493 46.571 A 3.917 3.917 0 0 1 139.913 46.277 Q 137.953 45.42 137.953 42.071 A 31.505 31.505 0 0 1 138.858 34.722 A 39.733 39.733 0 0 1 140.157 30.423 Q 140.958 28.173 141.421 26.644 A 42.499 42.499 0 0 0 141.469 26.485 Q 141.938 24.915 142.078 23.157 A 1.673 1.673 0 0 1 142.496 22.461 A 2.082 2.082 0 0 1 142.629 22.337 A 1.722 1.722 0 0 1 142.924 22.13 Q 143.128 22.019 143.334 21.993 A 1.013 1.013 0 0 1 143.461 21.985 A 0.702 0.702 0 0 1 144.059 22.31 Q 144.148 22.435 144.216 22.61 A 2.209 2.209 0 0 1 144.282 22.806 A 23.487 23.487 0 0 1 143.403 27.329 Q 142.735 29.579 141.985 31.852 Q 140.246 37.284 140.12 40.763 A 14.697 14.697 0 0 0 140.11 41.298 Q 140.11 43.112 140.803 43.968 A 2.067 2.067 0 0 0 140.907 44.087 Q 141.235 44.415 142.102 44.415 A 2.424 2.424 0 0 0 142.817 44.299 Q 143.129 44.202 143.466 44.026 A 6.061 6.061 0 0 0 144.082 43.653 A 7.339 7.339 0 0 0 145.833 41.952 A 8.452 8.452 0 0 0 146.016 41.696 A 10.004 10.004 0 0 0 147.554 38.43 A 9.231 9.231 0 0 0 147.844 36.118 A 5.695 5.695 0 0 0 147.77 35.184 A 4.882 4.882 0 0 0 147.68 34.759 A 11.698 11.698 0 0 1 146.557 34.474 Q 145.424 34.121 144.88 33.617 A 1.414 1.414 0 0 1 144.375 32.556 Q 144.375 31.665 145.254 31.056 A 4.487 4.487 0 0 1 145.789 30.734 Q 146.083 30.586 146.359 30.514 A 1.98 1.98 0 0 1 146.86 30.446 Q 148.228 30.446 149.174 32.54 A 9.249 9.249 0 0 1 149.321 32.884 A 6.647 6.647 0 0 0 150.173 33.035 Q 150.595 33.083 151.068 33.092 A 11.559 11.559 0 0 0 151.289 33.095 A 10.025 10.025 0 0 0 154.827 32.481 A 9.321 9.321 0 0 0 156.504 31.653 Q 158.813 30.212 160.266 27.798 Q 160.426 27.349 160.597 26.736 A 28.544 28.544 0 0 0 160.758 26.134 Q 161.766 22.243 163.383 22.243 Q 164.25 22.243 164.25 23.438 A 26.825 26.825 0 0 1 163.055 26.75 A 21.786 21.786 0 0 1 162.047 28.759 A 91.588 91.588 0 0 0 160.704 32.922 Q 158.977 38.784 158.977 42.352 A 15.31 15.31 0 0 0 158.994 43.095 Q 159.083 44.931 159.657 44.931 Q 160.336 44.931 160.875 44.497 Q 161.414 44.063 161.918 43.548 A 28.924 28.924 0 0 1 162.534 42.935 A 24.087 24.087 0 0 1 162.891 42.598 Q 163.185 42.327 163.46 42.225 A 0.927 0.927 0 0 1 163.782 42.165 Q 164.542 42.165 164.653 42.746 A 1.15 1.15 0 0 1 164.672 42.962 Q 164.672 43.454 164.297 43.923 Q 163.618 44.532 163.055 45.106 Q 162.624 45.546 162.008 46.068 A 25.506 25.506 0 0 1 161.614 46.395 A 3.019 3.019 0 0 1 160.48 46.961 Q 160.039 47.08 159.518 47.104 A 5.855 5.855 0 0 1 159.246 47.11 Q 157.758 47.11 157.231 46.138 A 3.235 3.235 0 0 1 156.967 45.456 Q 156.77 44.742 156.72 43.666 A 16.737 16.737 0 0 1 156.703 42.891 A 20.668 20.668 0 0 1 156.91 40.114 Q 157.306 37.216 158.458 33.386 A 72.26 72.26 0 0 1 158.625 32.837 A 10.499 10.499 0 0 1 151.922 35.157 A 21.461 21.461 0 0 1 150.727 35.122 A 26.593 26.593 0 0 1 149.907 35.063 Z M 19.609 40.141 A 1.221 1.221 0 0 0 19.289 40.102 A 1.195 1.195 0 0 0 18.906 40.17 Q 18.731 40.229 18.545 40.34 A 3.045 3.045 0 0 0 18.2 40.583 Q 17.602 41.063 16.723 41.86 A 20.37 20.37 0 0 1 16.175 42.34 A 17.191 17.191 0 0 1 14.977 43.266 A 740.371 740.371 0 0 1 15.373 41.424 Q 18.203 28.344 19.453 25.032 A 4.339 4.339 0 0 0 19.735 23.497 A 1.174 1.174 0 0 0 19.702 23.207 Q 19.611 22.852 19.27 22.751 A 1.095 1.095 0 0 0 18.961 22.712 A 1.644 1.644 0 0 0 18.8 22.719 A 1.338 1.338 0 0 0 18.328 22.852 A 5.353 5.353 0 0 0 17.178 22.353 A 6.132 6.132 0 0 0 15.399 22.102 A 6.123 6.123 0 0 0 13.546 22.388 Q 12.306 22.779 11.15 23.706 A 11.644 11.644 0 0 0 9.446 25.419 A 22.503 22.503 0 0 0 7.43 28.322 A 26.858 26.858 0 0 0 5.18 33.317 A 31.727 31.727 0 0 0 4.178 36.961 A 24.578 24.578 0 0 0 3.633 42.001 Q 3.633 44.227 4.723 45.563 A 4.367 4.367 0 0 0 4.937 45.807 A 3.363 3.363 0 0 0 7.477 46.899 Q 8.297 46.899 9.235 46.337 A 6.306 6.306 0 0 0 10.035 45.751 Q 12.363 43.755 13.969 38.837 A 1837.506 1837.506 0 0 1 13.688 40.032 Q 13.553 40.604 13.429 41.126 A 1025.43 1025.43 0 0 1 13.149 42.306 A 246.256 246.256 0 0 0 12.941 43.187 Q 12.842 43.607 12.755 43.986 A 126.914 126.914 0 0 0 12.563 44.837 Q 10.289 46.735 8.051 48.598 A 50.268 50.268 0 0 0 6.696 49.768 A 42.859 42.859 0 0 0 4.02 52.372 A 22.431 22.431 0 0 0 2.868 53.698 A 18.373 18.373 0 0 0 1.114 56.298 A 8.963 8.963 0 0 0 0 60.704 A 6.992 6.992 0 0 0 0.014 61.145 A 5.258 5.258 0 0 0 1.559 64.653 A 5.238 5.238 0 0 0 3.239 65.797 A 5.524 5.524 0 0 0 5.403 66.212 A 5.032 5.032 0 0 0 7.44 65.805 A 5.109 5.109 0 0 0 9.223 64.477 A 10.923 10.923 0 0 0 10.272 63.079 A 12.562 12.562 0 0 0 11.567 60.317 A 39.19 39.19 0 0 0 11.955 59.085 A 44.793 44.793 0 0 0 12.926 55.149 A 239.668 239.668 0 0 0 13.439 52.524 A 179.759 179.759 0 0 0 13.875 50.134 A 2594.057 2594.057 0 0 1 14.672 45.61 Q 17.086 43.899 19.735 41.86 A 0.9 0.9 0 0 0 19.938 41.626 Q 20.034 41.467 20.077 41.258 A 1.816 1.816 0 0 0 20.11 40.899 A 1.136 1.136 0 0 0 20.073 40.599 Q 19.975 40.24 19.609 40.141 Z M 135.437 40.141 A 1.221 1.221 0 0 0 135.118 40.102 A 1.195 1.195 0 0 0 134.734 40.17 Q 134.559 40.229 134.373 40.34 A 3.045 3.045 0 0 0 134.028 40.583 Q 133.43 41.063 132.551 41.86 A 20.37 20.37 0 0 1 132.003 42.34 A 17.191 17.191 0 0 1 130.805 43.266 A 740.371 740.371 0 0 1 131.201 41.424 Q 134.032 28.344 135.282 25.032 A 4.339 4.339 0 0 0 135.563 23.497 A 1.174 1.174 0 0 0 135.53 23.207 Q 135.439 22.852 135.098 22.751 A 1.095 1.095 0 0 0 134.789 22.712 A 1.644 1.644 0 0 0 134.628 22.719 A 1.338 1.338 0 0 0 134.157 22.852 A 5.353 5.353 0 0 0 133.006 22.353 A 6.132 6.132 0 0 0 131.227 22.102 A 6.123 6.123 0 0 0 129.374 22.388 Q 128.134 22.779 126.978 23.706 A 11.644 11.644 0 0 0 125.274 25.419 A 22.503 22.503 0 0 0 123.258 28.322 A 26.858 26.858 0 0 0 121.008 33.317 A 31.727 31.727 0 0 0 120.007 36.961 A 24.578 24.578 0 0 0 119.461 42.001 Q 119.461 44.227 120.551 45.563 A 4.367 4.367 0 0 0 120.765 45.807 A 3.363 3.363 0 0 0 123.305 46.899 Q 124.125 46.899 125.063 46.337 A 6.306 6.306 0 0 0 125.863 45.751 Q 128.191 43.755 129.797 38.837 A 1837.506 1837.506 0 0 1 129.516 40.032 Q 129.381 40.604 129.257 41.126 A 1025.43 1025.43 0 0 1 128.977 42.306 A 246.256 246.256 0 0 0 128.769 43.187 Q 128.67 43.607 128.583 43.986 A 126.914 126.914 0 0 0 128.391 44.837 Q 126.118 46.735 123.879 48.598 A 50.268 50.268 0 0 0 122.524 49.768 A 42.859 42.859 0 0 0 119.848 52.372 A 22.431 22.431 0 0 0 118.696 53.698 A 18.373 18.373 0 0 0 116.942 56.298 A 8.963 8.963 0 0 0 115.828 60.704 A 6.992 6.992 0 0 0 115.842 61.145 A 5.258 5.258 0 0 0 117.387 64.653 A 5.238 5.238 0 0 0 119.067 65.797 A 5.524 5.524 0 0 0 121.231 66.212 A 5.032 5.032 0 0 0 123.269 65.805 A 5.109 5.109 0 0 0 125.051 64.477 A 10.923 10.923 0 0 0 126.1 63.079 A 12.562 12.562 0 0 0 127.395 60.317 A 39.19 39.19 0 0 0 127.783 59.085 A 44.793 44.793 0 0 0 128.754 55.149 A 239.668 239.668 0 0 0 129.267 52.524 A 179.759 179.759 0 0 0 129.703 50.134 A 2594.057 2594.057 0 0 1 130.5 45.61 Q 132.914 43.899 135.563 41.86 A 0.9 0.9 0 0 0 135.767 41.626 Q 135.863 41.467 135.905 41.258 A 1.816 1.816 0 0 0 135.938 40.899 A 1.136 1.136 0 0 0 135.901 40.599 Q 135.803 40.24 135.437 40.141 Z M 91.758 27.282 L 91.618 28.196 A 28.952 28.952 0 0 1 93.719 25.733 Q 96.057 23.307 98.184 22.567 A 5.534 5.534 0 0 1 100.008 22.243 Q 101.625 22.243 102.305 24.329 A 9.172 9.172 0 0 1 102.688 26.176 A 11.585 11.585 0 0 1 102.75 27.399 Q 102.75 30.657 101.321 35.345 A 34.398 34.398 0 0 1 99.922 39.155 Q 98.927 41.416 97.688 43.196 A 14.161 14.161 0 0 1 96.361 44.857 Q 94.467 46.867 92.456 46.986 A 4.29 4.29 0 0 1 92.203 46.993 Q 90.704 46.993 89.626 44.827 A 14.46 14.46 0 0 1 89.625 44.825 Q 88.547 42.657 88.547 39.763 Q 88.547 36.9 88.731 35.103 A 22.181 22.181 0 0 1 88.735 35.063 A 1.092 1.092 0 0 1 88.421 34.979 Q 88.086 34.826 88.023 34.436 A 1.212 1.212 0 0 1 88.008 34.243 A 1.584 1.584 0 0 1 88.048 33.895 A 1.975 1.975 0 0 1 88.102 33.704 L 89.063 32.04 Q 89.952 25.52 92.696 14.754 A 351.869 351.869 0 0 1 93.305 12.399 Q 95.144 5.516 97.668 2.172 A 11.196 11.196 0 0 1 98.625 1.056 A 5.071 5.071 0 0 1 99.177 0.552 Q 99.887 0.001 100.547 0.001 A 3.802 3.802 0 0 1 101.992 0.254 Q 103.641 0.928 103.828 3.396 A 8.752 8.752 0 0 1 103.852 4.056 Q 103.852 7.655 101.579 11.996 A 35.423 35.423 0 0 1 99.399 15.587 Q 98.448 16.986 96.913 19.19 A 863.218 863.218 0 0 1 95.918 20.614 A 46.784 46.784 0 0 0 94.15 23.326 Q 93.327 24.697 92.711 25.972 A 26.335 26.335 0 0 0 92.438 26.556 A 1.404 1.404 0 0 1 91.758 27.282 Z M 75.047 37.313 L 74.953 40.759 Q 74.953 43.425 76.02 44.328 A 2.049 2.049 0 0 0 77.391 44.79 Q 78.685 44.79 80.105 44.049 A 8.635 8.635 0 0 0 80.145 44.028 A 889.928 889.928 0 0 0 80.815 43.674 Q 81.646 43.233 82.114 42.983 A 110.253 110.253 0 0 0 82.219 42.927 A 4.974 4.974 0 0 1 82.518 42.778 Q 82.94 42.587 83.203 42.587 A 1.115 1.115 0 0 1 83.533 42.631 Q 83.895 42.743 83.99 43.138 A 1.355 1.355 0 0 1 84.024 43.454 Q 84.024 44.462 81.563 45.727 Q 79.102 46.993 77.461 46.993 A 8.049 8.049 0 0 1 76.603 46.95 Q 75.59 46.841 75 46.454 A 3.882 3.882 0 0 1 73.905 45.354 A 4.761 4.761 0 0 1 73.664 44.954 Q 72.657 43.079 72.657 40.431 A 27.852 27.852 0 0 1 73.585 33.169 A 25.643 25.643 0 0 1 74.063 31.595 A 24.286 24.286 0 0 1 75.587 28.017 A 17.934 17.934 0 0 1 77.813 24.716 Q 80.157 21.985 82.875 21.985 A 2.794 2.794 0 0 1 84.028 22.216 Q 84.692 22.513 85.161 23.192 A 4.705 4.705 0 0 1 85.958 25.391 A 5.992 5.992 0 0 1 85.993 26.04 A 9.752 9.752 0 0 1 85.669 28.609 A 7.698 7.698 0 0 1 84.387 31.243 A 13.139 13.139 0 0 1 80.438 34.735 A 36.201 36.201 0 0 1 77.749 36.14 A 48.258 48.258 0 0 1 75.047 37.313 Z M 106.453 37.313 L 106.36 40.759 Q 106.36 43.425 107.426 44.328 A 2.049 2.049 0 0 0 108.797 44.79 Q 110.092 44.79 111.511 44.049 A 8.635 8.635 0 0 0 111.551 44.028 A 889.928 889.928 0 0 0 112.221 43.674 Q 113.053 43.233 113.52 42.983 A 110.253 110.253 0 0 0 113.625 42.927 A 4.974 4.974 0 0 1 113.924 42.778 Q 114.346 42.587 114.61 42.587 A 1.115 1.115 0 0 1 114.939 42.631 Q 115.302 42.743 115.396 43.138 A 1.355 1.355 0 0 1 115.43 43.454 Q 115.43 44.462 112.969 45.727 Q 110.508 46.993 108.868 46.993 A 8.049 8.049 0 0 1 108.01 46.95 Q 106.996 46.841 106.407 46.454 A 3.882 3.882 0 0 1 105.311 45.354 A 4.761 4.761 0 0 1 105.071 44.954 Q 104.063 43.079 104.063 40.431 A 27.852 27.852 0 0 1 104.991 33.169 A 25.643 25.643 0 0 1 105.469 31.595 A 24.286 24.286 0 0 1 106.993 28.017 A 17.934 17.934 0 0 1 109.219 24.716 Q 111.563 21.985 114.282 21.985 A 2.794 2.794 0 0 1 115.434 22.216 Q 116.099 22.513 116.567 23.192 A 4.705 4.705 0 0 1 117.364 25.391 A 5.992 5.992 0 0 1 117.399 26.04 A 9.752 9.752 0 0 1 117.075 28.609 A 7.698 7.698 0 0 1 115.793 31.243 A 13.139 13.139 0 0 1 111.844 34.735 A 36.201 36.201 0 0 1 109.155 36.14 A 48.258 48.258 0 0 1 106.453 37.313 Z M 7.301 33.681 Q 5.813 37.782 5.813 41.192 A 9.776 9.776 0 0 0 5.874 42.34 Q 6.143 44.602 7.594 44.602 Q 9.084 44.602 11.035 41.783 A 19.348 19.348 0 0 0 11.063 41.743 A 23.808 23.808 0 0 0 13.938 36.002 A 26.912 26.912 0 0 0 14.157 35.345 Q 15.123 32.303 15.805 29.842 A 101.698 101.698 0 0 0 16.02 29.052 A 638.571 638.571 0 0 1 16.372 27.743 Q 16.805 26.143 17.125 24.997 A 183.447 183.447 0 0 1 17.227 24.634 A 2.666 2.666 0 0 0 15.776 24.023 A 3.519 3.519 0 0 0 15.375 24.001 Q 13.322 24.001 11.181 26.586 A 14.756 14.756 0 0 0 11.016 26.79 A 20.993 20.993 0 0 0 8.859 30.124 A 28.539 28.539 0 0 0 7.301 33.681 Z M 123.129 33.681 Q 121.641 37.782 121.641 41.192 A 9.776 9.776 0 0 0 121.702 42.34 Q 121.971 44.602 123.422 44.602 Q 124.912 44.602 126.863 41.783 A 19.348 19.348 0 0 0 126.891 41.743 A 23.808 23.808 0 0 0 129.766 36.002 A 26.912 26.912 0 0 0 129.985 35.345 Q 130.952 32.303 131.633 29.842 A 101.698 101.698 0 0 0 131.848 29.052 A 638.571 638.571 0 0 1 132.2 27.743 Q 132.633 26.143 132.953 24.997 A 183.447 183.447 0 0 1 133.055 24.634 A 2.666 2.666 0 0 0 131.604 24.023 A 3.519 3.519 0 0 0 131.203 24.001 Q 129.15 24.001 127.01 26.586 A 14.756 14.756 0 0 0 126.844 26.79 A 20.993 20.993 0 0 0 124.687 30.124 A 28.539 28.539 0 0 0 123.129 33.681 Z M 90.703 37.876 A 35.565 35.565 0 0 0 90.762 40.004 Q 90.946 43.068 91.719 44.111 A 1.164 1.164 0 0 0 92.672 44.649 A 2.543 2.543 0 0 0 94.06 44.204 Q 95.183 43.48 96.293 41.579 A 26.316 26.316 0 0 0 97.934 38.213 Q 98.632 36.496 99.195 34.519 A 42.666 42.666 0 0 0 99.27 34.255 A 58.269 58.269 0 0 0 99.788 32.268 Q 100.453 29.5 100.453 27.997 A 27.664 27.664 0 0 0 100.445 27.297 Q 100.41 25.892 100.219 25.454 A 0.773 0.773 0 0 0 99.816 25.058 Q 99.527 24.924 99.063 24.915 A 3.466 3.466 0 0 0 99 24.915 A 3.353 3.353 0 0 0 97.635 25.234 Q 96.561 25.712 95.343 26.911 A 15.976 15.976 0 0 0 94.782 27.493 Q 93.211 29.204 90.985 32.79 Q 90.703 35.532 90.703 37.876 Z M 98.133 5.415 A 40.454 40.454 0 0 0 96.37 9.501 Q 94.741 13.861 93.25 20.103 A 154.027 154.027 0 0 0 92.766 22.196 A 56.637 56.637 0 0 1 93.801 20.51 A 67.652 67.652 0 0 1 94.489 19.454 A 387.339 387.339 0 0 0 95.009 18.667 Q 95.86 17.38 97.125 15.446 A 51.291 51.291 0 0 0 99.043 12.241 Q 101.508 7.723 101.508 4.946 A 15.168 15.168 0 0 0 101.496 4.311 Q 101.471 3.713 101.394 3.306 A 3.578 3.578 0 0 0 101.368 3.177 Q 101.24 2.613 100.746 2.561 A 0.996 0.996 0 0 0 100.641 2.556 A 1.132 1.132 0 0 0 100.007 2.782 Q 99.161 3.36 98.133 5.415 Z M 6.723 52.397 A 21.792 21.792 0 0 0 5.953 53.251 A 29.093 29.093 0 0 0 4.417 55.231 Q 3 57.246 2.551 58.818 A 4.969 4.969 0 0 0 2.344 60.177 A 9.614 9.614 0 0 0 2.398 61.237 Q 2.523 62.361 2.94 62.978 A 1.701 1.701 0 0 0 3.469 63.493 Q 3.929 63.778 4.829 63.796 A 6.196 6.196 0 0 0 4.957 63.798 A 4.058 4.058 0 0 0 6.129 63.633 A 3.603 3.603 0 0 0 6.762 63.376 Q 7.358 63.065 7.915 62.353 A 7.003 7.003 0 0 0 8.309 61.794 A 9.936 9.936 0 0 0 8.814 60.891 Q 9.293 59.929 9.762 58.583 Q 10.477 56.532 10.934 54.364 A 384.539 384.539 0 0 0 11.137 53.393 Q 11.36 52.325 11.48 51.71 A 39.101 39.101 0 0 0 11.543 51.376 A 137.063 137.063 0 0 0 11.687 50.591 A 103.073 103.073 0 0 0 11.813 49.876 A 40.725 40.725 0 0 0 11.946 49.058 A 33.272 33.272 0 0 0 12.012 48.598 A 40.951 40.951 0 0 1 12.182 47.474 A 38.279 38.279 0 0 1 12.188 47.438 Q 8.627 50.387 6.723 52.397 Z M 122.552 52.397 A 21.792 21.792 0 0 0 121.782 53.251 A 29.093 29.093 0 0 0 120.245 55.231 Q 118.828 57.246 118.38 58.818 A 4.969 4.969 0 0 0 118.172 60.177 A 9.614 9.614 0 0 0 118.226 61.237 Q 118.351 62.361 118.768 62.978 A 1.701 1.701 0 0 0 119.297 63.493 Q 119.757 63.778 120.657 63.796 A 6.196 6.196 0 0 0 120.786 63.798 A 4.058 4.058 0 0 0 121.957 63.633 A 3.603 3.603 0 0 0 122.59 63.376 Q 123.186 63.065 123.744 62.353 A 7.003 7.003 0 0 0 124.137 61.794 A 9.936 9.936 0 0 0 124.642 60.891 Q 125.121 59.929 125.59 58.583 Q 126.305 56.532 126.762 54.364 A 384.539 384.539 0 0 0 126.966 53.393 Q 127.188 52.325 127.308 51.71 A 39.101 39.101 0 0 0 127.371 51.376 A 137.063 137.063 0 0 0 127.515 50.591 A 103.073 103.073 0 0 0 127.641 49.876 A 40.725 40.725 0 0 0 127.774 49.058 A 33.272 33.272 0 0 0 127.84 48.598 A 40.951 40.951 0 0 1 128.01 47.474 A 38.279 38.279 0 0 1 128.016 47.438 Q 124.455 50.387 122.552 52.397 Z M 30.235 53.251 L 31.336 48.352 L 30.516 49.079 A 235.545 235.545 0 0 1 27.211 51.821 A 26.263 26.263 0 0 0 24.668 54.139 Q 22.037 56.904 21.523 59.516 A 6.507 6.507 0 0 0 21.399 60.774 Q 21.399 62.743 22.688 63.821 Q 23.172 64.2 23.948 64.239 A 3.629 3.629 0 0 0 24.129 64.243 A 2.567 2.567 0 0 0 25.649 63.743 A 3.25 3.25 0 0 0 25.793 63.634 A 5.789 5.789 0 0 0 26.686 62.735 A 7.367 7.367 0 0 0 27.164 62.063 A 11.906 11.906 0 0 0 27.876 60.761 A 14.739 14.739 0 0 0 28.254 59.884 Q 28.735 58.665 29.11 57.446 A 41.819 41.819 0 0 0 29.575 55.82 A 35.572 35.572 0 0 0 29.754 55.114 A 81.318 81.318 0 0 1 29.885 54.58 Q 30.076 53.816 30.233 53.255 A 21.856 21.856 0 0 1 30.235 53.251 Z M 83.789 26.134 Q 83.789 24.259 82.219 24.259 A 2.063 2.063 0 0 0 81.28 24.512 Q 80.554 24.884 79.722 25.803 A 13.865 13.865 0 0 0 78.914 26.79 A 16.277 16.277 0 0 0 77.385 29.302 Q 76.475 31.128 75.774 33.47 A 17.364 17.364 0 0 0 75.638 33.943 Q 75.507 34.423 75.453 34.758 A 3.391 3.391 0 0 0 75.422 34.993 Q 76.36 34.477 77.344 34.009 Q 78.328 33.54 79.266 33.024 A 12.369 12.369 0 0 0 80.967 31.9 Q 81.94 31.127 82.606 30.223 A 5.865 5.865 0 0 0 83.594 28.007 Q 83.777 27.197 83.789 26.259 A 10.293 10.293 0 0 0 83.789 26.134 Z M 115.196 26.134 Q 115.196 24.259 113.625 24.259 A 2.063 2.063 0 0 0 112.686 24.512 Q 111.96 24.884 111.128 25.803 A 13.865 13.865 0 0 0 110.321 26.79 A 16.277 16.277 0 0 0 108.791 29.302 Q 107.881 31.128 107.18 33.47 A 17.364 17.364 0 0 0 107.044 33.943 Q 106.914 34.423 106.859 34.758 A 3.391 3.391 0 0 0 106.828 34.993 Q 107.766 34.477 108.75 34.009 Q 109.735 33.54 110.672 33.024 A 12.369 12.369 0 0 0 112.373 31.9 Q 113.346 31.127 114.012 30.223 A 5.865 5.865 0 0 0 115 28.007 Q 115.183 27.197 115.195 26.259 A 10.293 10.293 0 0 0 115.196 26.134 Z" vector-effect="non-scaling-stroke"/></g></svg>